# xmcd CD database file
#
# Track frame offsets:
#	150
#	24277
#	42018
#	59662
#	86558
#	100262
#	115729
#	134950
#	153928
#	173557
#
# Disc length: 2584 seconds
#
# Revision: 0
# Processed by: cddbd v1.5.2PL0 Copyright (c) Steve Scherf et al.
# Submitted via: jetAudio 7
#
DISCID=7c0a160a
DTITLE=姚忠 - PIGEON
DYEAR=1900
DGENRE=장르 없음
TTITLE0=鴿子
TTITLE1=我們的家園
TTITLE2=你就是幸福
TTITLE3=回憶
TTITLE4=南美之行
TTITLE5=燕子
TTITLE6=關塔拉美拉
TTITLE7=我的愛
TTITLE8=情感
TTITLE9=明天的狂歡節
EXTD=
EXTT0=
EXTT1=
EXTT2=
EXTT3=
EXTT4=
EXTT5=
EXTT6=
EXTT7=
EXTT8=
EXTT9=
PLAYORDER=
